<?xml version="1.0" standalone="no"?>
<!DOCTYPE svg PUBLIC "-//W3C//DTD SVG 20010904//EN"
 "http://www.w3.org/TR/2001/REC-SVG-20010904/DTD/svg10.dtd">
<svg version="1.0" xmlns="http://www.w3.org/2000/svg"
 width="900.000000pt" height="900.000000pt" viewBox="0 0 900.000000 900.000000"
 preserveAspectRatio="xMidYMid meet">

<g transform="translate(0.000000,900.000000) scale(0.100000,-0.100000)"
fill="#000000" stroke="none">
<path d="M0 4500 l0 -4500 4500 0 4500 0 0 4500 0 4500 -4500 0 -4500 0 0
-4500z m4642 3432 c9 -9 15 -60 18 -170 l5 -157 167 -3 c161 -2 168 -3 180
-25 19 -32 18 -323 -1 -356 l-13 -24 -157 6 c-94 4 -162 3 -171 -3 -12 -7 -16
-38 -18 -145 -5 -188 -4 -192 68 -238 112 -73 196 -175 252 -307 26 -62 32
-92 36 -175 2 -59 -1 -124 -8 -158 -19 -94 -84 -211 -156 -284 -35 -35 -64
-67 -64 -71 0 -4 37 -46 83 -94 78 -84 84 -88 125 -88 39 0 138 19 292 56 70
17 557 167 680 209 99 34 462 138 570 163 296 70 707 85 910 34 326 -82 570
-304 685 -622 71 -198 81 -479 25 -720 -54 -231 -183 -531 -372 -870 -36 -63
-80 -142 -98 -175 -18 -33 -36 -64 -40 -70 -25 -33 -178 -352 -223 -465 -87
-216 -125 -384 -136 -590 l-6 -125 -2780 0 -2780 0 -6 125 c-7 144 -19 218
-54 347 -61 228 -180 492 -380 843 -381 668 -497 1027 -463 1432 31 375 216
651 547 819 264 133 736 137 1216 9 144 -38 348 -99 440 -130 296 -101 704
-220 875 -255 139 -28 142 -27 237 72 46 48 83 91 83 96 0 4 -29 36 -63 71
-73 71 -138 188 -157 283 -20 96 -8 244 27 328 54 130 144 241 253 310 25 16
51 36 58 44 15 18 17 287 2 326 l-10 27 -144 -7 c-190 -10 -192 -9 -207 63
-14 67 -7 278 10 311 11 19 21 21 179 23 l167 3 5 157 c3 86 10 161 15 167 18
16 48 20 167 18 80 -1 121 -6 130 -15z m2698 -6082 l0 -240 -2845 0 -2845 0 0
240 0 240 2845 0 2845 0 0 -240z"/>
<path d="M1835 5773 c-81 -10 -182 -35 -252 -63 -433 -168 -500 -703 -170
-1363 319 -640 667 -1142 932 -1344 180 -137 401 -149 485 -26 23 34 25 45 25
152 0 130 -17 195 -63 250 l-27 32 -176 9 c-277 14 -276 14 -303 110 -14 50
-36 189 -36 226 0 30 47 34 218 21 92 -8 184 -12 205 -9 32 4 37 7 37 31 0 15
-20 87 -45 161 -25 74 -44 146 -43 159 5 43 54 47 286 25 49 -5 65 -11 74 -27
6 -11 28 -88 50 -171 21 -83 45 -161 54 -173 14 -22 18 -23 194 -23 203 0 196
2 229 -83 20 -56 51 -191 51 -226 0 -38 -32 -44 -190 -36 -81 4 -162 4 -180 0
l-32 -7 4 -58 c10 -137 162 -338 308 -408 73 -35 174 -55 235 -45 92 14 189
86 276 205 65 90 111 191 152 332 31 108 32 117 32 301 -1 206 -17 324 -76
566 -37 155 -67 242 -135 400 -101 236 -154 420 -141 488 4 20 1 33 -11 44
-23 20 -221 118 -329 163 -219 91 -805 277 -1064 338 -193 46 -438 67 -574 49z"/>
<path d="M6865 5773 c-153 -18 -413 -75 -545 -118 -25 -8 -134 -42 -242 -75
-284 -86 -542 -181 -706 -260 -190 -92 -202 -101 -195 -145 12 -72 -37 -243
-137 -475 -94 -220 -142 -387 -190 -655 -27 -154 -37 -400 -20 -498 49 -280
202 -546 362 -628 138 -71 313 -29 459 108 110 104 179 230 179 328 0 57 -7
59 -189 50 -153 -7 -196 -3 -205 21 -8 21 21 174 45 239 33 87 27 85 220 85
94 0 179 4 189 10 22 12 29 32 74 206 44 174 42 170 118 178 232 22 281 18
286 -25 1 -13 -18 -86 -43 -162 -52 -157 -55 -182 -23 -190 12 -4 83 -1 157 5
170 13 267 15 277 5 12 -11 -12 -183 -36 -259 l-20 -66 -53 -12 c-28 -6 -131
-15 -227 -20 -96 -5 -176 -9 -177 -10 -1 0 -16 -20 -32 -44 -37 -54 -61 -147
-61 -241 0 -93 13 -135 56 -177 71 -72 201 -76 349 -13 101 43 301 229 437
407 255 331 633 1000 728 1288 135 410 108 732 -80 943 -36 41 -145 111 -220
141 -122 50 -377 78 -535 59z"/>
</g>
</svg>
